<svg xmlns="http://www.w3.org/2000/svg" version="1.2" baseProfile="tiny" width="51.84" height="48.64" viewBox="19 4 162 152"><g transform="translate(0,0)" stroke-width="4" stroke="black" fill="none" ><path d="M70,40 l25,-25 m0,25 l-25,-25   M105,40 l25,-25 m0,25 l-25,-25" stroke-width="8" stroke-linecap="round" stroke-linejoin="round" stroke="#0b1c25" fill="none" ></path></g><path d="M25,50 l150,0 0,100 -150,0 z Z" stroke-width="8" stroke-linecap="round" stroke-linejoin="round" stroke="#0b1c25" fill="none" ></path><path d="M25,50 l150,0 0,100 -150,0 z" stroke-width="4" stroke="black" fill="rgb(128,224,255)" fill-opacity="1" ></path><path d="M125,80 C150,80 150,120 125,120 L75,120 C50,120 50,80 75,80 Z" stroke-width="3" stroke="black" fill="none" ></path><g transform="translate(0,0)" stroke-width="4" stroke="black" fill="none" ><path d="M70,40 l25,-25 m0,25 l-25,-25   M105,40 l25,-25 m0,25 l-25,-25" ></path></g></svg>